<svg width="98" height="91" viewBox="0 -10 85 115" fill="none" xmlns="http://www.w3.org/2000/svg">
<path d="M76.4023 22.0612L64.5263 4.76908C63.646 3.49013 62.4761 2.44103 61.1134 1.70871C59.7507 0.976401 58.2345 0.581959 56.6905 0.558076L34.1527 0.232162H34.1063C22.4705 0.232162 13.5429 2.19396 7.79298 11.7683C2.43979 20.6804 0.15625 35.8616 0.15625 62.5295V65.7887H7.54381L2.78818 90.2322H9.37812L14.1337 65.7887H16.3229C21.6037 65.8362 26.6911 63.7881 30.4865 60.0868C33.9177 56.7775 36.3926 52.2502 37.6441 46.9944L37.6554 46.9472L43.2012 20.1608H36.5951L31.3452 45.5185C29.7463 52.1752 24.9652 59.2704 16.3229 59.2704H6.63504C6.81065 36.1986 8.89474 22.5198 13.325 15.1429C17.0433 8.95055 22.4784 6.75247 34.0838 6.74941L56.5975 7.07533C57.1122 7.08322 57.6176 7.21467 58.0719 7.45878C58.5261 7.70289 58.9161 8.05263 59.2094 8.479L72.6435 28.0377L90.6896 31.0695V34.524L87.6802 50.7017C86.792 55.4765 85.2738 57.8818 79.0476 58.6357L53.5232 63.0373L53.3545 90.2322H59.8212L59.9559 68.54L79.9016 65.0975C84.4202 64.5375 87.7539 63.0697 90.0918 60.6115C92.0904 58.5098 93.3068 55.8247 94.0363 51.9031L97.1562 35.1298V25.5477L76.4023 22.0612Z" fill="black"/>
</svg>
